<svg xmlns="http://www.w3.org/2000/svg" xmlns:xlink="http://www.w3.org/1999/xlink" version="1.1" id="Layer_1" x="0px" y="0px" viewBox="0 0 400 400" style="enable-background:new 0 0 400 400;" xml:space="preserve">
<style type="text/css">
	.st0{fill:#8BB93F;}
	.st1{fill:#57AADB;}
	.st2{fill:#FFFFFF;}
</style>
<g id="XMLID_48_">
	<g id="XMLID_1019_">
		<g id="XMLID_1048_">
			<path id="XMLID_1050_" class="st0" d="M400,62.2c0,33-26.6,59.8-59.6,60.1c-0.2,0-0.4,0-0.6,0c-1.9,0-3.8-0.1-5.7-0.3     c-2.3-0.2-4.4-0.6-6.6-1c-27.3-5.7-47.8-29.9-47.8-58.9c0-3.5,0.3-7,0.9-10.3c0.4-2.3,0.9-4.5,1.5-6.6c0.5-2,1.3-4,2.1-6     c9-21.9,30.5-37.3,55.7-37.3C373.1,2,400,28.9,400,62.2z"/>
			<path id="XMLID_1049_" class="st0" d="M87.3,153.1c0,16.6-9.2,31-22.8,38.4c-1.8,1-3.7,1.9-5.7,2.6c-1.9,0.7-3.8,1.3-5.8,1.7     c-3,0.7-6.1,1-9.3,1C19.6,196.8,0,177.2,0,153.1c0-24.1,19.6-43.6,43.7-43.6c4.4,0,8.6,0.6,12.6,1.9c2,0.6,3.8,1.3,5.7,2.1     c1.9,0.9,3.7,1.9,5.4,3C79.4,124.3,87.3,137.8,87.3,153.1z"/>
		</g>
		<circle id="XMLID_2_" class="st1" cx="196.4" cy="159.1" r="148.3"/>
		<path id="XMLID_1039_" class="st2" d="M284.1,39.4c-0.8,1.9-1.5,3.9-2.1,6c-0.7,2.1-1.2,4.3-1.5,6.6    c22.2,17.4,38.8,41.4,46.9,69.1c2.2,0.5,4.5,0.8,6.8,1c1.9,0.2,3.6,0.3,5.5,0.3c0.2,0,0.3,0,0.5,0    C331.6,88.5,311.5,59.4,284.1,39.4z M61.7,113.4c-1.8-0.8-3.8-1.6-5.7-2.1c-5.1,15-7.9,31.1-7.9,47.8c0,12.6,1.6,25.1,4.6,36.8    c2-0.4,3.9-0.9,5.8-1.6c2-0.7,4.1-1.6,5.9-2.6c-2.6-10.4-4.1-21.4-4.1-32.6c0-14.9,2.4-29.3,6.8-42.7    C65.4,115.2,63.6,114.3,61.7,113.4z"/>
		<g id="XMLID_1020_">
			<g id="XMLID_1032_">
				<path id="XMLID_1033_" class="st2" d="M209.6,172.7h-81.4c2.9,5.8,6.8,10.7,11.9,14.6c5,4,10.7,7.2,17,9.7h35.6v35.9h-31.4      c-7.8,0-17.8-3.6-30.2-10.7c-13-7.7-22.9-17.4-29.6-29.1c-2.6-4.3-4.8-8.7-6.5-13.4c-1.7-4.7-3-9.5-3.8-14.4v-20.6      c0.8-5.2,2-10.1,3.8-14.6c1.7-4.5,3.9-8.9,6.5-13c7.2-12,17.1-21.6,29.6-28.9c6.6-3.6,13.3-6.3,20.1-8.2      c6.8-1.9,14-2.9,21.3-2.9h99.9v28.9c-1.7,9.9-5,19.2-9.9,27.8c-7.5,12.4-12.2,19-14.2,20l-0.8,1.7l-7.1,6.6L209.6,172.7z       M206.5,137.6c6.3-2.5,12-5.7,17-9.7c5-4,8.8-9.7,11.5-17.1h-65.6l-12.2,2.3c-6.3,2.5-12,5.7-17,9.7c-5,4-9,8.9-11.9,14.8H206.5      z"/>
			</g>
			<g id="XMLID_1021_">
				<path id="XMLID_1030_" class="st2" d="M211.9,196.9v4.5c-2.4,0-3.8,0.1-4.3,0.2c-0.4,0.2-0.6,0.7-0.6,1.4v0.9h4.9v4.6h-2.8v23.9      h-11.7v-23.9h-2.4V204h2.4c0-1.9,0.1-3.2,0.3-3.9c0.2-0.6,0.6-1.2,1.3-1.7c0.7-0.5,1.6-0.9,2.9-1.2c1.2-0.3,3.2-0.4,5.8-0.4      H211.9z"/>
				<path id="XMLID_1027_" class="st2" d="M240.6,209.7v8.6c0,3.2-0.2,5.5-0.5,6.9c-0.3,1.5-1.1,2.9-2.2,4.1      c-1.1,1.3-2.6,2.2-4.4,2.8c-1.8,0.6-3.8,0.9-6.1,0.9c-2.6,0-4.8-0.3-6.6-0.8c-1.8-0.5-3.2-1.3-4.2-2.4c-1-1-1.7-2.3-2.1-3.8      c-0.4-1.5-0.6-3.7-0.6-6.7v-9c0-3.3,0.4-5.8,1.2-7.6c0.8-1.8,2.2-3.3,4.2-4.4c2-1.1,4.6-1.6,7.7-1.6c2.6,0,4.9,0.4,6.8,1.1      c1.9,0.7,3.3,1.6,4.4,2.8c1,1.2,1.7,2.3,2.1,3.6C240.4,205.4,240.6,207.2,240.6,209.7z M228.9,207.1c0-1.8-0.1-2.9-0.3-3.4      c-0.2-0.5-0.7-0.7-1.4-0.7c-0.7,0-1.2,0.2-1.4,0.7c-0.2,0.5-0.3,1.6-0.3,3.4v15.8c0,1.7,0.1,2.7,0.3,3.2      c0.2,0.5,0.7,0.7,1.4,0.7c0.7,0,1.1-0.2,1.4-0.7c0.2-0.5,0.3-1.4,0.3-3V207.1z"/>
				<path id="XMLID_1025_" class="st2" d="M256.5,196.9v35.7h-12v-35.7H256.5z"/>
				<path id="XMLID_1022_" class="st2" d="M272.7,196.9v4.7h-12v-4.7H272.7z M272.7,203.3v29.3h-12v-29.3H272.7z"/>
			</g>
		</g>
	</g>
	<g id="XMLID_9_">
		<g id="XMLID_192_">
			<path id="XMLID_210_" class="st1" d="M0,325.3h34.2v12H13.1v12.3h21.1v11.8H13.1V374h21.1v12H0V325.3z"/>
			<path id="XMLID_208_" class="st1" d="M45.4,325.3h34.2V337H58.4v12.4h21.2v11.8H58.5V386H45.4V325.3z"/>
			<path id="XMLID_205_" class="st1" d="M88.7,355.6c0-9,3-16.4,8.9-22.2c5.9-5.8,13-8.8,21.1-8.8c9,0,16.5,2.9,22.3,8.8     c5.9,5.9,8.8,13.3,8.8,22.3c0,8.9-2.9,16.3-8.7,22.2c-5.8,5.9-13.2,8.8-22,8.8c-8.9,0-16.1-2.9-21.9-8.8     C91.5,372.1,88.7,364.7,88.7,355.6z M119.3,336.8c-5.1-0.1-9.2,1.7-12.3,5.3c-3.1,3.6-4.7,8.3-4.7,14c0,5.4,1.6,9.9,4.8,13.4     c3.2,3.5,7.2,5.3,12,5.3c5.1,0,9.2-1.7,12.3-5.3c3.1-3.5,4.7-8.1,4.7-13.9c0-5.6-1.5-10.2-4.6-13.6     C128.5,338.6,124.4,336.9,119.3,336.8z"/>
			<path id="XMLID_203_" class="st1" d="M161.1,325.3h13v47.6H192V386h-30.9V325.3z"/>
			<path id="XMLID_201_" class="st1" d="M200.6,325.3h13.1V386h-13.1V325.3z"/>
			<path id="XMLID_199_" class="st1" d="M228.3,372.2h11.8l-9.5,25.5h-6.8L228.3,372.2z"/>
			<path id="XMLID_197_" class="st1" d="M275.9,325.3h13v47.6h17.9V386h-30.9V325.3z"/>
			<path id="XMLID_195_" class="st1" d="M316.4,325.3h13v47.6h17.9V386h-30.9V325.3z"/>
			<path id="XMLID_193_" class="st1" d="M400,328.5v14.8c-6.6-3.9-12.3-5.9-17.3-5.9c-4.9,0-8.9,1.7-11.8,5.1c-3,3.4-4.4,8-4.4,13.7     c0,5.4,1.6,9.8,4.7,13c3.1,3.3,7.3,4.9,12.5,4.9c4.6,0,10-1.8,16.4-5.5v14.7c-7.1,2.4-13.1,3.6-17.8,3.6c-8.2,0-15.1-3-20.8-9     c-5.7-6-8.6-13.3-8.6-21.9c0-8.8,2.9-16.2,8.7-22.3c5.8-6.1,12.9-9.1,21.2-9.1C388.1,324.5,393.9,325.8,400,328.5z"/>
		</g>
	</g>
</g>
</svg>